# xmcd
#
# Track frame offsets:
#	150
#	13783
#	28821
#	43044
#	56162
#	70619
#	83993
#	96922
#	110191
#	122656
#	137859
#	153791
#
# Disc length: 2240 seconds
#
# Revision: 0
# Processed by: cddbd v1.5.2PL0 Copyright (c) Steve Scherf et al.
# Submitted via: EasyCDDAExtractor 16.0.6.1
#
DISCID=a508be0c
DTITLE=Henrique and Juliano - Henrique and Juliano Vem Novinha
DYEAR=2012
DGENRE=Sertanejo
TTITLE0=Curte Demais
TTITLE1=Te Amo e Te Odeio
TTITLE2=Toda Vez Que Eu Te Beijar
TTITLE3=Vem Novinha
TTITLE4=Em Cada Beijo
TTITLE5=Batimentos
TTITLE6=Medo de Te Amar
TTITLE7=Aqui Tem Fogo
TTITLE8=Tô Voltando Pra Farra
TTITLE9=Recaídas
TTITLE10=Nasci Pra Te Amar
TTITLE11=Sai do Meio
EXTD=
EXTT0=
EXTT1=
EXTT2=
EXTT3=
EXTT4=
EXTT5=
EXTT6=
EXTT7=
EXTT8=
EXTT9=
EXTT10=
EXTT11=
PLAYORDER=
